<svg id="visual" viewBox="0 0 900 600" width="900" height="600" xmlns="http://www.w3.org/2000/svg" xmlns:xlink="http://www.w3.org/1999/xlink" version="1.1"><rect x="0" y="0" width="900" height="600" fill="#cbe9ff"></rect><defs><linearGradient id="grad1_0" x1="33.3%" y1="100%" x2="100%" y2="0%"><stop offset="20%" stop-color="#548dff" stop-opacity="1"></stop><stop offset="80%" stop-color="#548dff" stop-opacity="1"></stop></linearGradient></defs><defs><linearGradient id="grad1_1" x1="33.3%" y1="100%" x2="100%" y2="0%"><stop offset="20%" stop-color="#548dff" stop-opacity="1"></stop><stop offset="80%" stop-color="#63a7ff" stop-opacity="1"></stop></linearGradient></defs><defs><linearGradient id="grad1_2" x1="33.3%" y1="100%" x2="100%" y2="0%"><stop offset="20%" stop-color="#7fbeff" stop-opacity="1"></stop><stop offset="80%" stop-color="#63a7ff" stop-opacity="1"></stop></linearGradient></defs><defs><linearGradient id="grad1_3" x1="33.3%" y1="100%" x2="100%" y2="0%"><stop offset="20%" stop-color="#7fbeff" stop-opacity="1"></stop><stop offset="80%" stop-color="#a3d5ff" stop-opacity="1"></stop></linearGradient></defs><defs><linearGradient id="grad1_4" x1="33.3%" y1="100%" x2="100%" y2="0%"><stop offset="20%" stop-color="#cbe9ff" stop-opacity="1"></stop><stop offset="80%" stop-color="#a3d5ff" stop-opacity="1"></stop></linearGradient></defs><defs><linearGradient id="grad2_0" x1="0%" y1="100%" x2="66.7%" y2="0%"><stop offset="20%" stop-color="#548dff" stop-opacity="1"></stop><stop offset="80%" stop-color="#548dff" stop-opacity="1"></stop></linearGradient></defs><defs><linearGradient id="grad2_1" x1="0%" y1="100%" x2="66.7%" y2="0%"><stop offset="20%" stop-color="#63a7ff" stop-opacity="1"></stop><stop offset="80%" stop-color="#548dff" stop-opacity="1"></stop></linearGradient></defs><defs><linearGradient id="grad2_2" x1="0%" y1="100%" x2="66.7%" y2="0%"><stop offset="20%" stop-color="#63a7ff" stop-opacity="1"></stop><stop offset="80%" stop-color="#7fbeff" stop-opacity="1"></stop></linearGradient></defs><defs><linearGradient id="grad2_3" x1="0%" y1="100%" x2="66.7%" y2="0%"><stop offset="20%" stop-color="#a3d5ff" stop-opacity="1"></stop><stop offset="80%" stop-color="#7fbeff" stop-opacity="1"></stop></linearGradient></defs><defs><linearGradient id="grad2_4" x1="0%" y1="100%" x2="66.7%" y2="0%"><stop offset="20%" stop-color="#a3d5ff" stop-opacity="1"></stop><stop offset="80%" stop-color="#cbe9ff" stop-opacity="1"></stop></linearGradient></defs><g transform="translate(900, 600)"><path d="M-486.7 0C-477.7 -65.8 -468.7 -131.6 -437.9 -181.4C-407.1 -231.2 -354.5 -265 -311.8 -311.8C-269.2 -358.6 -236.6 -418.4 -186.3 -449.7C-136 -481 -68 -483.9 0 -486.7L0 0Z" fill="#b7dfff"></path><path d="M-389.4 0C-382.2 -52.6 -375 -105.3 -350.3 -145.1C-325.7 -185 -283.6 -212 -249.5 -249.5C-215.4 -286.9 -189.3 -334.7 -149 -359.8C-108.8 -384.8 -54.4 -387.1 0 -389.4L0 0Z" fill="#91caff"></path><path d="M-292 0C-286.6 -39.5 -281.2 -78.9 -262.8 -108.8C-244.3 -138.7 -212.7 -159 -187.1 -187.1C-161.5 -215.2 -141.9 -251 -111.8 -269.8C-81.6 -288.6 -40.8 -290.3 0 -292L0 0Z" fill="#70b3ff"></path><path d="M-194.7 0C-191.1 -26.3 -187.5 -52.6 -175.2 -72.6C-162.8 -92.5 -141.8 -106 -124.7 -124.7C-107.7 -143.5 -94.6 -167.4 -74.5 -179.9C-54.4 -192.4 -27.2 -193.6 0 -194.7L0 0Z" fill="#5a9aff"></path><path d="M-97.3 0C-95.5 -13.2 -93.7 -26.3 -87.6 -36.3C-81.4 -46.2 -70.9 -53 -62.4 -62.4C-53.8 -71.7 -47.3 -83.7 -37.3 -89.9C-27.2 -96.2 -13.6 -96.8 0 -97.3L0 0Z" fill="#548dff"></path></g><g transform="translate(0, 0)"><path d="M486.7 0C490 73.1 493.2 146.1 449.7 186.3C406.2 226.4 316.1 233.6 264.5 264.5C212.8 295.3 199.5 349.8 161.9 390.8C124.2 431.8 62.1 459.3 0 486.7L0 0Z" fill="#b7dfff"></path><path d="M389.4 0C392 58.5 394.5 116.9 359.8 149C325 181.1 252.9 186.9 211.6 211.6C170.2 236.2 159.6 279.8 129.5 312.6C99.4 345.4 49.7 367.4 0 389.4L0 0Z" fill="#91caff"></path><path d="M292 0C294 43.8 295.9 87.7 269.8 111.8C243.7 135.8 189.7 140.2 158.7 158.7C127.7 177.2 119.7 209.9 97.1 234.5C74.5 259.1 37.3 275.6 0 292L0 0Z" fill="#70b3ff"></path><path d="M194.7 0C196 29.2 197.3 58.5 179.9 74.5C162.5 90.6 126.5 93.4 105.8 105.8C85.1 118.1 79.8 139.9 64.8 156.3C49.7 172.7 24.8 183.7 0 194.7L0 0Z" fill="#5a9aff"></path><path d="M97.3 0C98 14.6 98.6 29.2 89.9 37.3C81.2 45.3 63.2 46.7 52.9 52.9C42.6 59.1 39.9 70 32.4 78.2C24.8 86.4 12.4 91.9 0 97.3L0 0Z" fill="#548dff"></path></g></svg>