<svg id="visual" viewBox="0 0 900 600" width="900" height="600" xmlns="http://www.w3.org/2000/svg" xmlns:xlink="http://www.w3.org/1999/xlink" version="1.1"><rect x="0" y="0" width="900" height="600" fill="#cbe9ff"></rect><defs><linearGradient id="grad1_0" x1="33.3%" y1="100%" x2="100%" y2="0%"><stop offset="20%" stop-color="#cbe9ff" stop-opacity="1"></stop><stop offset="80%" stop-color="#cbe9ff" stop-opacity="1"></stop></linearGradient></defs><defs><linearGradient id="grad2_0" x1="0%" y1="100%" x2="66.7%" y2="0%"><stop offset="20%" stop-color="#cbe9ff" stop-opacity="1"></stop><stop offset="80%" stop-color="#cbe9ff" stop-opacity="1"></stop></linearGradient></defs><g transform="translate(900, 600)"><path d="M-486.7 0C-465.7 -37.2 -444.7 -74.4 -404.6 -92.3C-364.5 -110.3 -305.3 -109 -306.3 -147.5C-307.4 -186 -368.8 -264.4 -351.8 -280.6C-334.9 -296.8 -239.7 -250.9 -197 -247.1C-154.4 -243.3 -164.4 -281.6 -160.1 -332.5C-155.8 -383.3 -137.4 -446.7 -108.3 -474.5C-79.3 -502.4 -39.6 -494.6 0 -486.7L0 0Z" fill="#548dff"></path></g><g transform="translate(0, 0)"><path d="M486.7 0C472.7 33.6 458.6 67.1 455.3 103.9C452 140.7 459.3 180.7 438.5 211.2C417.8 241.7 368.8 262.7 313.5 250C258.2 237.3 196.7 190.9 187.7 235.3C178.7 279.8 222.3 415 207.8 431.6C193.4 448.1 120.9 346 76.5 335.4C32.2 324.8 16.1 405.8 0 486.7L0 0Z" fill="#548dff"></path></g></svg>